M48
; DRILL file {KiCad 8.0.8} date 2025-01-27T11:14:53-0800
; FORMAT={-:-/ absolute / inch / decimal}
; #@! TF.CreationDate,2025-01-27T11:14:53-08:00
; #@! TF.GenerationSoftware,Kicad,Pcbnew,8.0.8
; #@! TF.FileFunction,Plated,1,2,PTH
FMAT,2
INCH
; #@! TA.AperFunction,Plated,PTH,ComponentDrill
T1C0.0236
; #@! TA.AperFunction,Plated,PTH,ComponentDrill
T2C0.0315
; #@! TA.AperFunction,Plated,PTH,ComponentDrill
T3C0.0394
; #@! TA.AperFunction,Plated,PTH,ComponentDrill
T4C0.0469
%
G90
G05
T3
X4.1Y-2.906
X4.1Y-2.906
X4.1Y-3.506
X4.1Y-3.506
X4.2Y-2.906
X4.2Y-2.906
X4.2Y-3.506
X4.2Y-3.506
X4.3Y-2.906
X4.3Y-2.906
X4.3Y-3.506
X4.3Y-3.506
X4.4Y-2.906
X4.4Y-2.906
X4.4Y-3.506
X4.4Y-3.506
X4.5Y-2.906
X4.5Y-2.906
X4.5Y-3.506
X4.5Y-3.506
X4.6Y-2.906
X4.6Y-2.906
X4.6Y-3.506
X4.6Y-3.506
X4.7Y-2.906
X4.7Y-2.906
X4.7Y-3.506
X4.7Y-3.506
X4.8Y-2.906
X4.8Y-2.906
X4.8Y-3.506
X4.8Y-3.506
X4.9Y-2.906
X4.9Y-2.906
X4.9Y-3.506
X4.9Y-3.506
X5.0Y-2.906
X5.0Y-2.906
X5.0Y-3.506
X5.0Y-3.506
X5.1Y-2.906
X5.1Y-2.906
X5.1Y-3.506
X5.1Y-3.506
X5.2Y-2.906
X5.2Y-2.906
X5.2Y-3.506
X5.2Y-3.506
X5.3Y-2.906
X5.3Y-2.906
X5.3Y-3.506
X5.3Y-3.506
X5.4Y-2.906
X5.4Y-2.906
X5.4Y-3.506
X5.4Y-3.506
X5.5Y-2.906
X5.5Y-2.906
X5.5Y-3.506
X5.5Y-3.506
T4
X4.667Y-3.187
X4.767Y-3.187
X4.867Y-3.187
X4.967Y-3.187
X5.247Y-3.191
X5.347Y-3.191
X5.447Y-3.191
X5.547Y-3.191
T1
G00X4.1453Y-3.0175
M15
G01X4.0823Y-3.0175
M16
G05
G00X4.1453Y-3.4034
M15
G01X4.0823Y-3.4034
M16
G05
T2
G00X4.4249Y-3.0333
M15
G01X4.3776Y-3.0333
M16
G05
G00X4.4249Y-3.1593
M15
G01X4.3776Y-3.1593
M16
G05
G00X4.4249Y-3.3679
M15
G01X4.3776Y-3.3679
M16
G05
M30
