%TF.GenerationSoftware,KiCad,Pcbnew,8.0.8*%
%TF.CreationDate,2025-01-27T11:14:47-08:00*%
%TF.ProjectId,nano-fan-5,6e616e6f-2d66-4616-9e2d-352e6b696361,rev?*%
%TF.SameCoordinates,Original*%
%TF.FileFunction,Legend,Top*%
%TF.FilePolarity,Positive*%
%FSLAX46Y46*%
G04 Gerber Fmt 4.6, Leading zero omitted, Abs format (unit mm)*
G04 Created by KiCad (PCBNEW 8.0.8) date 2025-01-27 11:14:47*
%MOMM*%
%LPD*%
G01*
G04 APERTURE LIST*
%ADD10C,0.150000*%
%ADD11C,0.120000*%
G04 APERTURE END LIST*
D10*
X99229104Y-82146685D02*
X99229104Y-81670495D01*
X99514819Y-82241923D02*
X98514819Y-81908590D01*
X98514819Y-81908590D02*
X99514819Y-81575257D01*
X99514819Y-80718114D02*
X99514819Y-81289542D01*
X99514819Y-81003828D02*
X98514819Y-81003828D01*
X98514819Y-81003828D02*
X98657676Y-81099066D01*
X98657676Y-81099066D02*
X98752914Y-81194304D01*
X98752914Y-81194304D02*
X98800533Y-81289542D01*
X139154819Y-82694304D02*
X139964342Y-82694304D01*
X139964342Y-82694304D02*
X140059580Y-82646685D01*
X140059580Y-82646685D02*
X140107200Y-82599066D01*
X140107200Y-82599066D02*
X140154819Y-82503828D01*
X140154819Y-82503828D02*
X140154819Y-82313352D01*
X140154819Y-82313352D02*
X140107200Y-82218114D01*
X140107200Y-82218114D02*
X140059580Y-82170495D01*
X140059580Y-82170495D02*
X139964342Y-82122876D01*
X139964342Y-82122876D02*
X139154819Y-82122876D01*
X140107200Y-81694304D02*
X140154819Y-81551447D01*
X140154819Y-81551447D02*
X140154819Y-81313352D01*
X140154819Y-81313352D02*
X140107200Y-81218114D01*
X140107200Y-81218114D02*
X140059580Y-81170495D01*
X140059580Y-81170495D02*
X139964342Y-81122876D01*
X139964342Y-81122876D02*
X139869104Y-81122876D01*
X139869104Y-81122876D02*
X139773866Y-81170495D01*
X139773866Y-81170495D02*
X139726247Y-81218114D01*
X139726247Y-81218114D02*
X139678628Y-81313352D01*
X139678628Y-81313352D02*
X139631009Y-81503828D01*
X139631009Y-81503828D02*
X139583390Y-81599066D01*
X139583390Y-81599066D02*
X139535771Y-81646685D01*
X139535771Y-81646685D02*
X139440533Y-81694304D01*
X139440533Y-81694304D02*
X139345295Y-81694304D01*
X139345295Y-81694304D02*
X139250057Y-81646685D01*
X139250057Y-81646685D02*
X139202438Y-81599066D01*
X139202438Y-81599066D02*
X139154819Y-81503828D01*
X139154819Y-81503828D02*
X139154819Y-81265733D01*
X139154819Y-81265733D02*
X139202438Y-81122876D01*
X139631009Y-80360971D02*
X139678628Y-80218114D01*
X139678628Y-80218114D02*
X139726247Y-80170495D01*
X139726247Y-80170495D02*
X139821485Y-80122876D01*
X139821485Y-80122876D02*
X139964342Y-80122876D01*
X139964342Y-80122876D02*
X140059580Y-80170495D01*
X140059580Y-80170495D02*
X140107200Y-80218114D01*
X140107200Y-80218114D02*
X140154819Y-80313352D01*
X140154819Y-80313352D02*
X140154819Y-80694304D01*
X140154819Y-80694304D02*
X139154819Y-80694304D01*
X139154819Y-80694304D02*
X139154819Y-80360971D01*
X139154819Y-80360971D02*
X139202438Y-80265733D01*
X139202438Y-80265733D02*
X139250057Y-80218114D01*
X139250057Y-80218114D02*
X139345295Y-80170495D01*
X139345295Y-80170495D02*
X139440533Y-80170495D01*
X139440533Y-80170495D02*
X139535771Y-80218114D01*
X139535771Y-80218114D02*
X139583390Y-80265733D01*
X139583390Y-80265733D02*
X139631009Y-80360971D01*
X139631009Y-80360971D02*
X139631009Y-80694304D01*
X141924819Y-74145733D02*
X142639104Y-74145733D01*
X142639104Y-74145733D02*
X142781961Y-74193352D01*
X142781961Y-74193352D02*
X142877200Y-74288590D01*
X142877200Y-74288590D02*
X142924819Y-74431447D01*
X142924819Y-74431447D02*
X142924819Y-74526685D01*
X142020057Y-73717161D02*
X141972438Y-73669542D01*
X141972438Y-73669542D02*
X141924819Y-73574304D01*
X141924819Y-73574304D02*
X141924819Y-73336209D01*
X141924819Y-73336209D02*
X141972438Y-73240971D01*
X141972438Y-73240971D02*
X142020057Y-73193352D01*
X142020057Y-73193352D02*
X142115295Y-73145733D01*
X142115295Y-73145733D02*
X142210533Y-73145733D01*
X142210533Y-73145733D02*
X142353390Y-73193352D01*
X142353390Y-73193352D02*
X142924819Y-73764780D01*
X142924819Y-73764780D02*
X142924819Y-73145733D01*
X139890666Y-89469619D02*
X139557333Y-88993428D01*
X139319238Y-89469619D02*
X139319238Y-88469619D01*
X139319238Y-88469619D02*
X139700190Y-88469619D01*
X139700190Y-88469619D02*
X139795428Y-88517238D01*
X139795428Y-88517238D02*
X139843047Y-88564857D01*
X139843047Y-88564857D02*
X139890666Y-88660095D01*
X139890666Y-88660095D02*
X139890666Y-88802952D01*
X139890666Y-88802952D02*
X139843047Y-88898190D01*
X139843047Y-88898190D02*
X139795428Y-88945809D01*
X139795428Y-88945809D02*
X139700190Y-88993428D01*
X139700190Y-88993428D02*
X139319238Y-88993428D01*
X140319238Y-88945809D02*
X140652571Y-88945809D01*
X140795428Y-89469619D02*
X140319238Y-89469619D01*
X140319238Y-89469619D02*
X140319238Y-88469619D01*
X140319238Y-88469619D02*
X140795428Y-88469619D01*
X141557333Y-88945809D02*
X141224000Y-88945809D01*
X141224000Y-89469619D02*
X141224000Y-88469619D01*
X141224000Y-88469619D02*
X141700190Y-88469619D01*
X142224000Y-88469619D02*
X142224000Y-88707714D01*
X141985905Y-88612476D02*
X142224000Y-88707714D01*
X142224000Y-88707714D02*
X142462095Y-88612476D01*
X142081143Y-88898190D02*
X142224000Y-88707714D01*
X142224000Y-88707714D02*
X142366857Y-88898190D01*
X142985905Y-88469619D02*
X142985905Y-88707714D01*
X142747810Y-88612476D02*
X142985905Y-88707714D01*
X142985905Y-88707714D02*
X143224000Y-88612476D01*
X142843048Y-88898190D02*
X142985905Y-88707714D01*
X142985905Y-88707714D02*
X143128762Y-88898190D01*
X139890666Y-66304819D02*
X139557333Y-65828628D01*
X139319238Y-66304819D02*
X139319238Y-65304819D01*
X139319238Y-65304819D02*
X139700190Y-65304819D01*
X139700190Y-65304819D02*
X139795428Y-65352438D01*
X139795428Y-65352438D02*
X139843047Y-65400057D01*
X139843047Y-65400057D02*
X139890666Y-65495295D01*
X139890666Y-65495295D02*
X139890666Y-65638152D01*
X139890666Y-65638152D02*
X139843047Y-65733390D01*
X139843047Y-65733390D02*
X139795428Y-65781009D01*
X139795428Y-65781009D02*
X139700190Y-65828628D01*
X139700190Y-65828628D02*
X139319238Y-65828628D01*
X140319238Y-65781009D02*
X140652571Y-65781009D01*
X140795428Y-66304819D02*
X140319238Y-66304819D01*
X140319238Y-66304819D02*
X140319238Y-65304819D01*
X140319238Y-65304819D02*
X140795428Y-65304819D01*
X141557333Y-65781009D02*
X141224000Y-65781009D01*
X141224000Y-66304819D02*
X141224000Y-65304819D01*
X141224000Y-65304819D02*
X141700190Y-65304819D01*
X142224000Y-65304819D02*
X142224000Y-65542914D01*
X141985905Y-65447676D02*
X142224000Y-65542914D01*
X142224000Y-65542914D02*
X142462095Y-65447676D01*
X142081143Y-65733390D02*
X142224000Y-65542914D01*
X142224000Y-65542914D02*
X142366857Y-65733390D01*
X142985905Y-65304819D02*
X142985905Y-65542914D01*
X142747810Y-65447676D02*
X142985905Y-65542914D01*
X142985905Y-65542914D02*
X143224000Y-65447676D01*
X142843048Y-65733390D02*
X142985905Y-65542914D01*
X142985905Y-65542914D02*
X143128762Y-65733390D01*
X100824819Y-89385733D02*
X101539104Y-89385733D01*
X101539104Y-89385733D02*
X101681961Y-89433352D01*
X101681961Y-89433352D02*
X101777200Y-89528590D01*
X101777200Y-89528590D02*
X101824819Y-89671447D01*
X101824819Y-89671447D02*
X101824819Y-89766685D01*
X101824819Y-88385733D02*
X101824819Y-88957161D01*
X101824819Y-88671447D02*
X100824819Y-88671447D01*
X100824819Y-88671447D02*
X100967676Y-88766685D01*
X100967676Y-88766685D02*
X101062914Y-88861923D01*
X101062914Y-88861923D02*
X101110533Y-88957161D01*
X101333466Y-89469619D02*
X101000133Y-88993428D01*
X100762038Y-89469619D02*
X100762038Y-88469619D01*
X100762038Y-88469619D02*
X101142990Y-88469619D01*
X101142990Y-88469619D02*
X101238228Y-88517238D01*
X101238228Y-88517238D02*
X101285847Y-88564857D01*
X101285847Y-88564857D02*
X101333466Y-88660095D01*
X101333466Y-88660095D02*
X101333466Y-88802952D01*
X101333466Y-88802952D02*
X101285847Y-88898190D01*
X101285847Y-88898190D02*
X101238228Y-88945809D01*
X101238228Y-88945809D02*
X101142990Y-88993428D01*
X101142990Y-88993428D02*
X100762038Y-88993428D01*
X101762038Y-88945809D02*
X102095371Y-88945809D01*
X102238228Y-89469619D02*
X101762038Y-89469619D01*
X101762038Y-89469619D02*
X101762038Y-88469619D01*
X101762038Y-88469619D02*
X102238228Y-88469619D01*
X103000133Y-88945809D02*
X102666800Y-88945809D01*
X102666800Y-89469619D02*
X102666800Y-88469619D01*
X102666800Y-88469619D02*
X103142990Y-88469619D01*
X103666800Y-88469619D02*
X103666800Y-88707714D01*
X103428705Y-88612476D02*
X103666800Y-88707714D01*
X103666800Y-88707714D02*
X103904895Y-88612476D01*
X103523943Y-88898190D02*
X103666800Y-88707714D01*
X103666800Y-88707714D02*
X103809657Y-88898190D01*
X104428705Y-88469619D02*
X104428705Y-88707714D01*
X104190610Y-88612476D02*
X104428705Y-88707714D01*
X104428705Y-88707714D02*
X104666800Y-88612476D01*
X104285848Y-88898190D02*
X104428705Y-88707714D01*
X104428705Y-88707714D02*
X104571562Y-88898190D01*
X101333466Y-66330219D02*
X101000133Y-65854028D01*
X100762038Y-66330219D02*
X100762038Y-65330219D01*
X100762038Y-65330219D02*
X101142990Y-65330219D01*
X101142990Y-65330219D02*
X101238228Y-65377838D01*
X101238228Y-65377838D02*
X101285847Y-65425457D01*
X101285847Y-65425457D02*
X101333466Y-65520695D01*
X101333466Y-65520695D02*
X101333466Y-65663552D01*
X101333466Y-65663552D02*
X101285847Y-65758790D01*
X101285847Y-65758790D02*
X101238228Y-65806409D01*
X101238228Y-65806409D02*
X101142990Y-65854028D01*
X101142990Y-65854028D02*
X100762038Y-65854028D01*
X101762038Y-65806409D02*
X102095371Y-65806409D01*
X102238228Y-66330219D02*
X101762038Y-66330219D01*
X101762038Y-66330219D02*
X101762038Y-65330219D01*
X101762038Y-65330219D02*
X102238228Y-65330219D01*
X103000133Y-65806409D02*
X102666800Y-65806409D01*
X102666800Y-66330219D02*
X102666800Y-65330219D01*
X102666800Y-65330219D02*
X103142990Y-65330219D01*
X103666800Y-65330219D02*
X103666800Y-65568314D01*
X103428705Y-65473076D02*
X103666800Y-65568314D01*
X103666800Y-65568314D02*
X103904895Y-65473076D01*
X103523943Y-65758790D02*
X103666800Y-65568314D01*
X103666800Y-65568314D02*
X103809657Y-65758790D01*
X104428705Y-65330219D02*
X104428705Y-65568314D01*
X104190610Y-65473076D02*
X104428705Y-65568314D01*
X104428705Y-65568314D02*
X104666800Y-65473076D01*
X104285848Y-65758790D02*
X104428705Y-65568314D01*
X104428705Y-65568314D02*
X104571562Y-65758790D01*
D11*
%TO.C,A1*%
X100200000Y-72412400D02*
X100200000Y-90452400D01*
X100200000Y-90452400D02*
X102870000Y-90452400D01*
X102870000Y-75082400D02*
X102870000Y-72412400D01*
X102870000Y-75082400D02*
X140970000Y-75082400D01*
X102870000Y-87782400D02*
X102870000Y-90452400D01*
X105410000Y-87782400D02*
X102870000Y-87782400D01*
X105410000Y-87782400D02*
X105410000Y-90452400D01*
X105410000Y-87782400D02*
X140970000Y-87782400D01*
X105410000Y-90452400D02*
X143640000Y-90452400D01*
X135760000Y-77492400D02*
X146180000Y-77492400D01*
X135760000Y-85372400D02*
X135760000Y-77492400D01*
X140970000Y-75082400D02*
X140970000Y-72412400D01*
X140970000Y-87782400D02*
X140970000Y-90452400D01*
X143640000Y-72412400D02*
X100200000Y-72412400D01*
X143640000Y-72412400D02*
X143640000Y-77492400D01*
X143640000Y-90452400D02*
X143640000Y-85372400D01*
X146180000Y-77492400D02*
X146180000Y-85372400D01*
X146180000Y-85372400D02*
X135760000Y-85372400D01*
%TO.C,J2*%
X102810000Y-72482400D02*
X102810000Y-75142400D01*
X138430000Y-72482400D02*
X102810000Y-72482400D01*
X138430000Y-72482400D02*
X138430000Y-75142400D01*
X138430000Y-75142400D02*
X102810000Y-75142400D01*
X141030000Y-73812400D02*
X141030000Y-75142400D01*
X141030000Y-75142400D02*
X139700000Y-75142400D01*
%TO.C,J1*%
X102810000Y-87722400D02*
X104140000Y-87722400D01*
X102810000Y-89052400D02*
X102810000Y-87722400D01*
X105410000Y-87722400D02*
X141030000Y-87722400D01*
X105410000Y-90382400D02*
X105410000Y-87722400D01*
X105410000Y-90382400D02*
X141030000Y-90382400D01*
X141030000Y-90382400D02*
X141030000Y-87722400D01*
%TD*%
M02*
