%TF.GenerationSoftware,KiCad,Pcbnew,8.0.8*%
%TF.CreationDate,2025-01-27T11:14:47-08:00*%
%TF.ProjectId,nano-fan-5,6e616e6f-2d66-4616-9e2d-352e6b696361,rev?*%
%TF.SameCoordinates,Original*%
%TF.FileFunction,Copper,L1,Top*%
%TF.FilePolarity,Positive*%
%FSLAX46Y46*%
G04 Gerber Fmt 4.6, Leading zero omitted, Abs format (unit mm)*
G04 Created by KiCad (PCBNEW 8.0.8) date 2025-01-27 11:14:47*
%MOMM*%
%LPD*%
G01*
G04 APERTURE LIST*
G04 Aperture macros list*
%AMRoundRect*
0 Rectangle with rounded corners*
0 $1 Rounding radius*
0 $2 $3 $4 $5 $6 $7 $8 $9 X,Y pos of 4 corners*
0 Add a 4 corners polygon primitive as box body*
4,1,4,$2,$3,$4,$5,$6,$7,$8,$9,$2,$3,0*
0 Add four circle primitives for the rounded corners*
1,1,$1+$1,$2,$3*
1,1,$1+$1,$4,$5*
1,1,$1+$1,$6,$7*
1,1,$1+$1,$8,$9*
0 Add four rect primitives between the rounded corners*
20,1,$1+$1,$2,$3,$4,$5,0*
20,1,$1+$1,$4,$5,$6,$7,0*
20,1,$1+$1,$6,$7,$8,$9,0*
20,1,$1+$1,$8,$9,$2,$3,0*%
G04 Aperture macros list end*
%TA.AperFunction,ComponentPad*%
%ADD10R,1.600000X1.600000*%
%TD*%
%TA.AperFunction,ComponentPad*%
%ADD11O,1.600000X1.600000*%
%TD*%
%TA.AperFunction,ComponentPad*%
%ADD12R,1.700000X1.700000*%
%TD*%
%TA.AperFunction,ComponentPad*%
%ADD13O,1.700000X1.700000*%
%TD*%
%TA.AperFunction,ComponentPad*%
%ADD14R,3.000000X1.800000*%
%TD*%
%TA.AperFunction,ComponentPad*%
%ADD15O,3.000000X1.800000*%
%TD*%
%TA.AperFunction,ComponentPad*%
%ADD16O,3.000000X1.600000*%
%TD*%
%TA.AperFunction,ComponentPad*%
%ADD17RoundRect,0.250000X0.620000X0.845000X-0.620000X0.845000X-0.620000X-0.845000X0.620000X-0.845000X0*%
%TD*%
%TA.AperFunction,ComponentPad*%
%ADD18O,1.740000X2.190000*%
%TD*%
%TA.AperFunction,Conductor*%
%ADD19C,0.200000*%
%TD*%
G04 APERTURE END LIST*
D10*
%TO.P,A1,1,D1/TX*%
%TO.N,TX1*%
X104140000Y-89052400D03*
D11*
%TO.P,A1,2,D0/RX*%
%TO.N,RX0*%
X106680000Y-89052400D03*
%TO.P,A1,3,~{RESET}*%
%TO.N,RST*%
X109220000Y-89052400D03*
%TO.P,A1,4,GND*%
%TO.N,GND*%
X111760000Y-89052400D03*
%TO.P,A1,5,D2*%
%TO.N,D2*%
X114300000Y-89052400D03*
%TO.P,A1,6,D3*%
%TO.N,D3*%
X116840000Y-89052400D03*
%TO.P,A1,7,D4*%
%TO.N,D4*%
X119380000Y-89052400D03*
%TO.P,A1,8,D5*%
%TO.N,D5*%
X121920000Y-89052400D03*
%TO.P,A1,9,D6*%
%TO.N,D6*%
X124460000Y-89052400D03*
%TO.P,A1,10,D7*%
%TO.N,D7*%
X127000000Y-89052400D03*
%TO.P,A1,11,D8*%
%TO.N,D8*%
X129540000Y-89052400D03*
%TO.P,A1,12,D9*%
%TO.N,D9*%
X132080000Y-89052400D03*
%TO.P,A1,13,D10*%
%TO.N,D10*%
X134620000Y-89052400D03*
%TO.P,A1,14,D11*%
%TO.N,D11*%
X137160000Y-89052400D03*
%TO.P,A1,15,D12*%
%TO.N,D12*%
X139700000Y-89052400D03*
%TO.P,A1,16,D13*%
%TO.N,D13*%
X139700000Y-73812400D03*
%TO.P,A1,17,3V3*%
%TO.N,V33*%
X137160000Y-73812400D03*
%TO.P,A1,18,AREF*%
%TO.N,AREF*%
X134620000Y-73812400D03*
%TO.P,A1,19,A0*%
%TO.N,A0*%
X132080000Y-73812400D03*
%TO.P,A1,20,A1*%
%TO.N,A1*%
X129540000Y-73812400D03*
%TO.P,A1,21,A2*%
%TO.N,A2*%
X127000000Y-73812400D03*
%TO.P,A1,22,A3*%
%TO.N,A3*%
X124460000Y-73812400D03*
%TO.P,A1,23,A4*%
%TO.N,A4*%
X121920000Y-73812400D03*
%TO.P,A1,24,A5*%
%TO.N,A5*%
X119380000Y-73812400D03*
%TO.P,A1,25,A6*%
%TO.N,A6*%
X116840000Y-73812400D03*
%TO.P,A1,26,A7*%
%TO.N,A7*%
X114300000Y-73812400D03*
%TO.P,A1,27,+5V*%
%TO.N,V5*%
X111760000Y-73812400D03*
%TO.P,A1,28,~{RESET}*%
%TO.N,RST*%
X109220000Y-73812400D03*
%TO.P,A1,29,GND*%
%TO.N,GND*%
X106680000Y-73812400D03*
%TO.P,A1,30,VIN*%
%TO.N,VIN*%
X104140000Y-73812400D03*
%TD*%
D12*
%TO.P,J2,1,Pin_1*%
%TO.N,D13*%
X139700000Y-73812400D03*
D13*
%TO.P,J2,2,Pin_2*%
%TO.N,V33*%
X137160000Y-73812400D03*
%TO.P,J2,3,Pin_3*%
%TO.N,AREF*%
X134620000Y-73812400D03*
%TO.P,J2,4,Pin_4*%
%TO.N,A0*%
X132080000Y-73812400D03*
%TO.P,J2,5,Pin_5*%
%TO.N,A1*%
X129540000Y-73812400D03*
%TO.P,J2,6,Pin_6*%
%TO.N,A2*%
X127000000Y-73812400D03*
%TO.P,J2,7,Pin_7*%
%TO.N,A3*%
X124460000Y-73812400D03*
%TO.P,J2,8,Pin_8*%
%TO.N,A4*%
X121920000Y-73812400D03*
%TO.P,J2,9,Pin_9*%
%TO.N,A5*%
X119380000Y-73812400D03*
%TO.P,J2,10,Pin_10*%
%TO.N,A6*%
X116840000Y-73812400D03*
%TO.P,J2,11,Pin_11*%
%TO.N,A7*%
X114300000Y-73812400D03*
%TO.P,J2,12,Pin_12*%
%TO.N,V5*%
X111760000Y-73812400D03*
%TO.P,J2,13,Pin_13*%
%TO.N,RST*%
X109220000Y-73812400D03*
%TO.P,J2,14,Pin_14*%
%TO.N,GND*%
X106680000Y-73812400D03*
%TO.P,J2,15,Pin_15*%
%TO.N,VIN*%
X104140000Y-73812400D03*
%TD*%
D12*
%TO.P,J1,1,Pin_1*%
%TO.N,TX1*%
X104140000Y-89052400D03*
D13*
%TO.P,J1,2,Pin_2*%
%TO.N,RX0*%
X106680000Y-89052400D03*
%TO.P,J1,3,Pin_3*%
%TO.N,RST*%
X109220000Y-89052400D03*
%TO.P,J1,4,Pin_4*%
%TO.N,GND*%
X111760000Y-89052400D03*
%TO.P,J1,5,Pin_5*%
%TO.N,D2*%
X114300000Y-89052400D03*
%TO.P,J1,6,Pin_6*%
%TO.N,D3*%
X116840000Y-89052400D03*
%TO.P,J1,7,Pin_7*%
%TO.N,D4*%
X119380000Y-89052400D03*
%TO.P,J1,8,Pin_8*%
%TO.N,D5*%
X121920000Y-89052400D03*
%TO.P,J1,9,Pin_9*%
%TO.N,D6*%
X124460000Y-89052400D03*
%TO.P,J1,10,Pin_10*%
%TO.N,D7*%
X127000000Y-89052400D03*
%TO.P,J1,11,Pin_11*%
%TO.N,D8*%
X129540000Y-89052400D03*
%TO.P,J1,12,Pin_12*%
%TO.N,D9*%
X132080000Y-89052400D03*
%TO.P,J1,13,Pin_13*%
%TO.N,D10*%
X134620000Y-89052400D03*
%TO.P,J1,14,Pin_14*%
%TO.N,D11*%
X137160000Y-89052400D03*
%TO.P,J1,15,Pin_15*%
%TO.N,D12*%
X139700000Y-89052400D03*
%TD*%
D14*
%TO.P,J3,1*%
%TO.N,/VFan*%
X111791200Y-77045700D03*
D15*
%TO.P,J3,2*%
%TO.N,GND*%
X111791200Y-85545700D03*
%TO.P,J3,3*%
%TO.N,unconnected-(J3-Pad3)*%
X111791200Y-80245700D03*
D16*
%TO.P,J3,SH*%
%TO.N,N/C*%
X104491200Y-86445700D03*
X104491200Y-76645700D03*
%TD*%
D17*
%TO.P,M1,1,-*%
%TO.N,GND*%
X126161800Y-80949800D03*
D18*
%TO.P,M1,2,+*%
%TO.N,/VFan*%
X123621800Y-80949800D03*
%TO.P,M1,3,Tacho*%
%TO.N,unconnected-(M1-Tacho-Pad3)*%
X121081800Y-80949800D03*
%TO.P,M1,4,PWM*%
%TO.N,D9*%
X118541800Y-80949800D03*
%TD*%
D17*
%TO.P,M2,1,-*%
%TO.N,GND*%
X140893800Y-81051400D03*
D18*
%TO.P,M2,2,+*%
%TO.N,/VFan*%
X138353800Y-81051400D03*
%TO.P,M2,3,Tacho*%
%TO.N,unconnected-(M2-Tacho-Pad3)*%
X135813800Y-81051400D03*
%TO.P,M2,4,PWM*%
%TO.N,D10*%
X133273800Y-81051400D03*
%TD*%
D19*
%TO.N,D9*%
X127685800Y-84658200D02*
X122250200Y-84658200D01*
X132080000Y-89052400D02*
X127685800Y-84658200D01*
X122250200Y-84658200D02*
X118541800Y-80949800D01*
%TO.N,D10*%
X134620000Y-88214200D02*
X133273800Y-86868000D01*
X133273800Y-86868000D02*
X133273800Y-81051400D01*
X134620000Y-89052400D02*
X134620000Y-88214200D01*
%TD*%
%TA.AperFunction,Conductor*%
%TO.N,/VFan*%
G36*
X111049131Y-74983019D02*
G01*
X111099730Y-74994623D01*
X111296337Y-75086303D01*
X111524592Y-75147463D01*
X111701034Y-75162900D01*
X111759999Y-75168059D01*
X111760000Y-75168059D01*
X111760001Y-75168059D01*
X111818966Y-75162900D01*
X111995408Y-75147463D01*
X112223663Y-75086303D01*
X112377193Y-75014710D01*
X112431392Y-75003106D01*
X113670835Y-75021118D01*
X113721434Y-75032722D01*
X113836337Y-75086303D01*
X114064592Y-75147463D01*
X114241034Y-75162900D01*
X114299999Y-75168059D01*
X114300000Y-75168059D01*
X114300001Y-75168059D01*
X114358966Y-75162900D01*
X114535408Y-75147463D01*
X114763663Y-75086303D01*
X114840426Y-75050507D01*
X114894629Y-75038903D01*
X116292539Y-75059218D01*
X116343137Y-75070821D01*
X116372204Y-75084376D01*
X116376339Y-75086304D01*
X116479794Y-75114024D01*
X116604592Y-75147463D01*
X116781034Y-75162900D01*
X116839999Y-75168059D01*
X116840000Y-75168059D01*
X116840001Y-75168059D01*
X116898966Y-75162900D01*
X117075408Y-75147463D01*
X117303663Y-75086303D01*
X117303674Y-75086297D01*
X117308754Y-75084450D01*
X117309012Y-75085160D01*
X117357863Y-75074699D01*
X118944514Y-75097757D01*
X118974804Y-75101969D01*
X119144592Y-75147463D01*
X119321034Y-75162900D01*
X119379999Y-75168059D01*
X119380000Y-75168059D01*
X119380001Y-75168059D01*
X119438966Y-75162900D01*
X119615408Y-75147463D01*
X119740209Y-75114022D01*
X119774090Y-75109812D01*
X121630178Y-75136785D01*
X121660460Y-75140997D01*
X121684592Y-75147463D01*
X121899403Y-75166256D01*
X121919999Y-75168059D01*
X121920000Y-75168059D01*
X121920001Y-75168059D01*
X122052220Y-75156491D01*
X122155408Y-75147463D01*
X122155409Y-75147462D01*
X122159786Y-75146691D01*
X122183113Y-75144821D01*
X138845460Y-75386962D01*
X138877523Y-75391664D01*
X142887406Y-76530273D01*
X142946517Y-76567520D01*
X142976108Y-76630813D01*
X142977527Y-76648316D01*
X143001999Y-79095592D01*
X143077330Y-82560813D01*
X143059107Y-82628264D01*
X143055540Y-82633758D01*
X142276694Y-83766626D01*
X142222494Y-83810717D01*
X142175230Y-83820374D01*
X137914245Y-83845004D01*
X137847093Y-83825707D01*
X137808988Y-83787695D01*
X137801270Y-83775597D01*
X136926274Y-82403981D01*
X136906816Y-82336878D01*
X136906844Y-82334611D01*
X136911331Y-82134953D01*
X136932516Y-82068378D01*
X136934926Y-82064936D01*
X136983793Y-81997676D01*
X137039123Y-81955013D01*
X137108736Y-81949035D01*
X137170531Y-81981642D01*
X137184427Y-81997679D01*
X137308825Y-82168896D01*
X137308825Y-82168897D01*
X137461302Y-82321374D01*
X137635763Y-82448128D01*
X137827898Y-82546027D01*
X138032990Y-82612666D01*
X138103800Y-82623881D01*
X138103800Y-81594109D01*
X138124139Y-81605852D01*
X138275467Y-81646400D01*
X138432133Y-81646400D01*
X138583461Y-81605852D01*
X138603800Y-81594109D01*
X138603800Y-82623880D01*
X138674609Y-82612666D01*
X138879701Y-82546027D01*
X139071836Y-82448128D01*
X139246293Y-82321377D01*
X139388378Y-82179292D01*
X139449701Y-82145807D01*
X139519393Y-82150791D01*
X139575327Y-82192662D01*
X139588440Y-82214565D01*
X139588981Y-82215725D01*
X139588985Y-82215731D01*
X139588986Y-82215734D01*
X139681088Y-82365056D01*
X139805144Y-82489112D01*
X139954466Y-82581214D01*
X140121003Y-82636399D01*
X140223791Y-82646900D01*
X141563808Y-82646899D01*
X141666597Y-82636399D01*
X141833134Y-82581214D01*
X141982456Y-82489112D01*
X142106512Y-82365056D01*
X142198614Y-82215734D01*
X142253799Y-82049197D01*
X142264300Y-81946409D01*
X142264299Y-80156392D01*
X142253799Y-80053603D01*
X142198614Y-79887066D01*
X142106512Y-79737744D01*
X141982456Y-79613688D01*
X141833134Y-79521586D01*
X141666597Y-79466401D01*
X141666595Y-79466400D01*
X141563810Y-79455900D01*
X140223798Y-79455900D01*
X140223781Y-79455901D01*
X140121003Y-79466400D01*
X140121000Y-79466401D01*
X139954468Y-79521585D01*
X139954463Y-79521587D01*
X139805142Y-79613689D01*
X139681089Y-79737742D01*
X139588982Y-79887072D01*
X139588438Y-79888240D01*
X139587851Y-79888905D01*
X139585195Y-79893213D01*
X139584458Y-79892758D01*
X139542261Y-79940675D01*
X139475066Y-79959822D01*
X139408187Y-79939601D01*
X139388379Y-79923507D01*
X139246297Y-79781425D01*
X139071836Y-79654671D01*
X138879699Y-79556772D01*
X138674605Y-79490133D01*
X138603800Y-79478918D01*
X138603800Y-80508690D01*
X138583461Y-80496948D01*
X138432133Y-80456400D01*
X138275467Y-80456400D01*
X138124139Y-80496948D01*
X138103800Y-80508690D01*
X138103800Y-79478918D01*
X138103799Y-79478918D01*
X138032994Y-79490133D01*
X137827900Y-79556772D01*
X137635763Y-79654671D01*
X137461303Y-79781425D01*
X137461302Y-79781425D01*
X137308824Y-79933903D01*
X137184427Y-80105120D01*
X137129096Y-80147785D01*
X137059483Y-80153764D01*
X136997688Y-80121158D01*
X136983791Y-80105120D01*
X136859159Y-79933579D01*
X136804723Y-79879143D01*
X136789230Y-79860245D01*
X136702801Y-79730601D01*
X136702800Y-79730600D01*
X136701907Y-79730593D01*
X136676320Y-79730407D01*
X136609426Y-79710234D01*
X136604338Y-79706728D01*
X136567309Y-79679825D01*
X136532099Y-79654243D01*
X136339889Y-79556308D01*
X136134726Y-79489646D01*
X136134724Y-79489645D01*
X136134722Y-79489645D01*
X135921666Y-79455900D01*
X135921661Y-79455900D01*
X135705939Y-79455900D01*
X135705934Y-79455900D01*
X135492877Y-79489645D01*
X135287708Y-79556309D01*
X135095498Y-79654244D01*
X135040374Y-79694294D01*
X134974567Y-79717773D01*
X134966588Y-79717972D01*
X134110639Y-79711747D01*
X134043745Y-79691575D01*
X134038656Y-79688068D01*
X133992109Y-79654250D01*
X133992100Y-79654244D01*
X133992101Y-79654244D01*
X133992099Y-79654243D01*
X133799889Y-79556308D01*
X133594726Y-79489646D01*
X133594724Y-79489645D01*
X133594722Y-79489645D01*
X133381666Y-79455900D01*
X133381661Y-79455900D01*
X133165939Y-79455900D01*
X133165934Y-79455900D01*
X132952877Y-79489645D01*
X132747708Y-79556309D01*
X132555495Y-79654246D01*
X132525546Y-79676005D01*
X132459739Y-79699483D01*
X132451761Y-79699682D01*
X129732419Y-79679906D01*
X129717800Y-79679800D01*
X129717799Y-79679800D01*
X127820866Y-83723265D01*
X127774572Y-83775597D01*
X127708606Y-83794600D01*
X124917200Y-83794600D01*
X124243960Y-83809235D01*
X123777863Y-83819368D01*
X123722481Y-83807646D01*
X122570419Y-83266882D01*
X122518098Y-83220579D01*
X122499379Y-83162807D01*
X122438168Y-82235899D01*
X122453392Y-82167712D01*
X122503066Y-82118577D01*
X122571419Y-82104098D01*
X122636749Y-82128872D01*
X122649579Y-82140051D01*
X122729302Y-82219774D01*
X122903763Y-82346528D01*
X123095898Y-82444427D01*
X123300990Y-82511066D01*
X123371800Y-82522281D01*
X123371800Y-81492509D01*
X123392139Y-81504252D01*
X123543467Y-81544800D01*
X123700133Y-81544800D01*
X123851461Y-81504252D01*
X123871800Y-81492509D01*
X123871800Y-82522280D01*
X123942609Y-82511066D01*
X124147701Y-82444427D01*
X124339836Y-82346528D01*
X124514293Y-82219777D01*
X124656378Y-82077692D01*
X124717701Y-82044207D01*
X124787393Y-82049191D01*
X124843327Y-82091062D01*
X124856440Y-82112965D01*
X124856981Y-82114125D01*
X124856985Y-82114131D01*
X124856986Y-82114134D01*
X124949088Y-82263456D01*
X125073144Y-82387512D01*
X125222466Y-82479614D01*
X125389003Y-82534799D01*
X125491791Y-82545300D01*
X126831808Y-82545299D01*
X126934597Y-82534799D01*
X127101134Y-82479614D01*
X127250456Y-82387512D01*
X127374512Y-82263456D01*
X127466614Y-82114134D01*
X127521799Y-81947597D01*
X127532300Y-81844809D01*
X127532299Y-80054792D01*
X127521799Y-79952003D01*
X127466614Y-79785466D01*
X127374512Y-79636144D01*
X127250456Y-79512088D01*
X127101134Y-79419986D01*
X126934597Y-79364801D01*
X126934595Y-79364800D01*
X126831810Y-79354300D01*
X125491798Y-79354300D01*
X125491781Y-79354301D01*
X125389003Y-79364800D01*
X125389000Y-79364801D01*
X125222468Y-79419985D01*
X125222463Y-79419987D01*
X125073142Y-79512089D01*
X124949089Y-79636142D01*
X124856982Y-79785472D01*
X124856438Y-79786640D01*
X124855851Y-79787305D01*
X124853195Y-79791613D01*
X124852458Y-79791158D01*
X124810261Y-79839075D01*
X124743066Y-79858222D01*
X124676187Y-79838001D01*
X124656379Y-79821907D01*
X124514297Y-79679825D01*
X124339836Y-79553071D01*
X124147699Y-79455172D01*
X123942605Y-79388533D01*
X123871800Y-79377318D01*
X123871800Y-80407090D01*
X123851461Y-80395348D01*
X123700133Y-80354800D01*
X123543467Y-80354800D01*
X123392139Y-80395348D01*
X123371800Y-80407090D01*
X123371800Y-79377318D01*
X123371799Y-79377318D01*
X123300994Y-79388533D01*
X123095900Y-79455172D01*
X122903763Y-79553071D01*
X122729303Y-79679825D01*
X122729302Y-79679825D01*
X122576822Y-79832305D01*
X122547574Y-79872562D01*
X122492243Y-79915227D01*
X122422630Y-79921205D01*
X122360835Y-79888598D01*
X122339068Y-79860265D01*
X121996200Y-79248000D01*
X121996199Y-79247999D01*
X121996200Y-79247999D01*
X113123840Y-79033503D01*
X113070542Y-79020024D01*
X112928806Y-78947805D01*
X112928802Y-78947804D01*
X112928799Y-78947802D01*
X112719152Y-78879685D01*
X112610286Y-78862442D01*
X112501422Y-78845200D01*
X111080978Y-78845200D01*
X111008401Y-78856695D01*
X110863247Y-78879685D01*
X110653596Y-78947803D01*
X110653587Y-78947807D01*
X110632859Y-78958369D01*
X110573568Y-78971848D01*
X110485057Y-78969708D01*
X110418513Y-78948409D01*
X110405102Y-78937912D01*
X110340406Y-78879685D01*
X110090871Y-78655104D01*
X110054211Y-78595627D01*
X110055525Y-78525770D01*
X110094399Y-78467713D01*
X110158489Y-78439889D01*
X110187081Y-78439648D01*
X110243358Y-78445699D01*
X110243372Y-78445700D01*
X111541200Y-78445700D01*
X111541200Y-77445700D01*
X112041200Y-77445700D01*
X112041200Y-78445700D01*
X113339028Y-78445700D01*
X113339044Y-78445699D01*
X113398572Y-78439298D01*
X113398579Y-78439296D01*
X113533286Y-78389054D01*
X113533293Y-78389050D01*
X113648387Y-78302890D01*
X113648390Y-78302887D01*
X113734550Y-78187793D01*
X113734554Y-78187786D01*
X113784796Y-78053079D01*
X113784798Y-78053072D01*
X113791199Y-77993544D01*
X113791200Y-77993527D01*
X113791200Y-77295700D01*
X112706886Y-77295700D01*
X112711280Y-77291306D01*
X112763941Y-77200094D01*
X112791200Y-77098361D01*
X112791200Y-76993039D01*
X112763941Y-76891306D01*
X112711280Y-76800094D01*
X112706886Y-76795700D01*
X113791200Y-76795700D01*
X113791200Y-76097872D01*
X113791199Y-76097855D01*
X113784798Y-76038327D01*
X113784796Y-76038320D01*
X113734554Y-75903613D01*
X113734550Y-75903606D01*
X113648390Y-75788512D01*
X113648387Y-75788509D01*
X113533293Y-75702349D01*
X113533286Y-75702345D01*
X113398579Y-75652103D01*
X113398572Y-75652101D01*
X113339044Y-75645700D01*
X112041200Y-75645700D01*
X112041200Y-76645700D01*
X111541200Y-76645700D01*
X111541200Y-75645700D01*
X110243355Y-75645700D01*
X110183827Y-75652101D01*
X110183815Y-75652104D01*
X110180156Y-75653469D01*
X110177121Y-75653685D01*
X110176270Y-75653887D01*
X110176237Y-75653749D01*
X110110464Y-75658450D01*
X110049143Y-75624961D01*
X110015661Y-75563636D01*
X110018584Y-75499947D01*
X110112333Y-75203078D01*
X110151290Y-75145080D01*
X110206256Y-75118828D01*
X110883473Y-74983385D01*
X110909580Y-74980991D01*
X111049131Y-74983019D01*
G37*
%TD.AperFunction*%
%TD*%
M02*
