%TF.GenerationSoftware,KiCad,Pcbnew,8.0.8*%
%TF.CreationDate,2025-01-27T11:14:47-08:00*%
%TF.ProjectId,nano-fan-5,6e616e6f-2d66-4616-9e2d-352e6b696361,rev?*%
%TF.SameCoordinates,Original*%
%TF.FileFunction,Legend,Bot*%
%TF.FilePolarity,Positive*%
%FSLAX46Y46*%
G04 Gerber Fmt 4.6, Leading zero omitted, Abs format (unit mm)*
G04 Created by KiCad (PCBNEW 8.0.8) date 2025-01-27 11:14:47*
%MOMM*%
%LPD*%
G01*
G04 APERTURE LIST*
%ADD10C,0.150000*%
%ADD11C,0.120000*%
G04 APERTURE END LIST*
D10*
X113846019Y-85556539D02*
X114560304Y-85556539D01*
X114560304Y-85556539D02*
X114703161Y-85508920D01*
X114703161Y-85508920D02*
X114798400Y-85413682D01*
X114798400Y-85413682D02*
X114846019Y-85270825D01*
X114846019Y-85270825D02*
X114846019Y-85175587D01*
X113846019Y-85937492D02*
X113846019Y-86556539D01*
X113846019Y-86556539D02*
X114226971Y-86223206D01*
X114226971Y-86223206D02*
X114226971Y-86366063D01*
X114226971Y-86366063D02*
X114274590Y-86461301D01*
X114274590Y-86461301D02*
X114322209Y-86508920D01*
X114322209Y-86508920D02*
X114417447Y-86556539D01*
X114417447Y-86556539D02*
X114655542Y-86556539D01*
X114655542Y-86556539D02*
X114750780Y-86508920D01*
X114750780Y-86508920D02*
X114798400Y-86461301D01*
X114798400Y-86461301D02*
X114846019Y-86366063D01*
X114846019Y-86366063D02*
X114846019Y-86080349D01*
X114846019Y-86080349D02*
X114798400Y-85985111D01*
X114798400Y-85985111D02*
X114750780Y-85937492D01*
X123161323Y-77284619D02*
X123161323Y-76284619D01*
X123161323Y-76284619D02*
X122827990Y-76998904D01*
X122827990Y-76998904D02*
X122494657Y-76284619D01*
X122494657Y-76284619D02*
X122494657Y-77284619D01*
X121494657Y-77284619D02*
X122066085Y-77284619D01*
X121780371Y-77284619D02*
X121780371Y-76284619D01*
X121780371Y-76284619D02*
X121875609Y-76427476D01*
X121875609Y-76427476D02*
X121970847Y-76522714D01*
X121970847Y-76522714D02*
X122066085Y-76570333D01*
X137893323Y-77386219D02*
X137893323Y-76386219D01*
X137893323Y-76386219D02*
X137559990Y-77100504D01*
X137559990Y-77100504D02*
X137226657Y-76386219D01*
X137226657Y-76386219D02*
X137226657Y-77386219D01*
X136798085Y-76481457D02*
X136750466Y-76433838D01*
X136750466Y-76433838D02*
X136655228Y-76386219D01*
X136655228Y-76386219D02*
X136417133Y-76386219D01*
X136417133Y-76386219D02*
X136321895Y-76433838D01*
X136321895Y-76433838D02*
X136274276Y-76481457D01*
X136274276Y-76481457D02*
X136226657Y-76576695D01*
X136226657Y-76576695D02*
X136226657Y-76671933D01*
X136226657Y-76671933D02*
X136274276Y-76814790D01*
X136274276Y-76814790D02*
X136845704Y-77386219D01*
X136845704Y-77386219D02*
X136226657Y-77386219D01*
D11*
%TO.C,J3*%
X109991200Y-76145700D02*
X106191200Y-76145700D01*
X112591200Y-75845700D02*
X113591200Y-75845700D01*
X113291200Y-79445700D02*
X113291200Y-78245700D01*
X113291200Y-84745700D02*
X113291200Y-81045700D01*
X113291200Y-86845700D02*
X106191200Y-86845700D01*
X113291200Y-86845700D02*
X113291200Y-86345700D01*
X113591200Y-76845700D02*
X113591200Y-75845700D01*
%TO.C,M1*%
X117161800Y-77919800D02*
X117161800Y-83939800D01*
X117161800Y-83939800D02*
X127541800Y-83939800D01*
X117741800Y-77919800D02*
X117741800Y-78519800D01*
X117741800Y-78519800D02*
X119341800Y-78519800D01*
X118541800Y-82939800D02*
X118791800Y-82409800D01*
X118541800Y-82939800D02*
X126161800Y-82939800D01*
X118541800Y-83939800D02*
X118541800Y-82939800D01*
X118791800Y-82409800D02*
X125911800Y-82409800D01*
X118791800Y-82939800D02*
X118791800Y-83939800D01*
X119341800Y-78519800D02*
X119341800Y-77919800D01*
X120281800Y-77919800D02*
X120281800Y-78519800D01*
X120281800Y-78519800D02*
X121881800Y-78519800D01*
X121881800Y-78519800D02*
X121881800Y-77919800D01*
X122821800Y-77919800D02*
X122821800Y-78519800D01*
X122821800Y-78519800D02*
X124421800Y-78519800D01*
X124421800Y-78519800D02*
X124421800Y-77919800D01*
X125361800Y-77919800D02*
X125361800Y-78519800D01*
X125361800Y-78519800D02*
X126961800Y-78519800D01*
X125911800Y-82409800D02*
X126161800Y-82939800D01*
X125911800Y-82939800D02*
X125911800Y-83939800D01*
X126161800Y-82939800D02*
X126161800Y-83939800D01*
X126961800Y-78519800D02*
X126961800Y-77919800D01*
X127541800Y-77919800D02*
X117161800Y-77919800D01*
X127541800Y-83939800D02*
X127541800Y-77919800D01*
X127831800Y-82949800D02*
X127831800Y-78949800D01*
%TO.C,M2*%
X131893800Y-78021400D02*
X131893800Y-84041400D01*
X131893800Y-84041400D02*
X142273800Y-84041400D01*
X132473800Y-78021400D02*
X132473800Y-78621400D01*
X132473800Y-78621400D02*
X134073800Y-78621400D01*
X133273800Y-83041400D02*
X133523800Y-82511400D01*
X133273800Y-83041400D02*
X140893800Y-83041400D01*
X133273800Y-84041400D02*
X133273800Y-83041400D01*
X133523800Y-82511400D02*
X140643800Y-82511400D01*
X133523800Y-83041400D02*
X133523800Y-84041400D01*
X134073800Y-78621400D02*
X134073800Y-78021400D01*
X135013800Y-78021400D02*
X135013800Y-78621400D01*
X135013800Y-78621400D02*
X136613800Y-78621400D01*
X136613800Y-78621400D02*
X136613800Y-78021400D01*
X137553800Y-78021400D02*
X137553800Y-78621400D01*
X137553800Y-78621400D02*
X139153800Y-78621400D01*
X139153800Y-78621400D02*
X139153800Y-78021400D01*
X140093800Y-78021400D02*
X140093800Y-78621400D01*
X140093800Y-78621400D02*
X141693800Y-78621400D01*
X140643800Y-82511400D02*
X140893800Y-83041400D01*
X140643800Y-83041400D02*
X140643800Y-84041400D01*
X140893800Y-83041400D02*
X140893800Y-84041400D01*
X141693800Y-78621400D02*
X141693800Y-78021400D01*
X142273800Y-78021400D02*
X131893800Y-78021400D01*
X142273800Y-84041400D02*
X142273800Y-78021400D01*
X142563800Y-83051400D02*
X142563800Y-79051400D01*
%TD*%
M02*
